<?xml version="1.0" encoding="utf-8"?>
<!-- Generator: Adobe Illustrator 19.0.0, SVG Export Plug-In . SVG Version: 6.00 Build 0)  -->
<svg version="1.1" xmlns="http://www.w3.org/2000/svg" xmlns:xlink="http://www.w3.org/1999/xlink" x="0px" y="0px"
	 viewBox="0 0 355 40.1" style="enable-background:new 0 0 355 40.1;" xml:space="preserve">
<style type="text/css">
	.st0{fill:#231C4C;}
</style>
<g id="BACKGROUND">
</g>
<g id="OBJECTS">
	<g id="XMLID_7_">
		<path id="XMLID_8_" class="st0" d="M5.6,35.8v0.8c0,0.7,0.6,1.2,1.2,1.2h23.7c4.8,0,8.7-3.9,8.7-8.7v-7c0-0.6-0.5-1-1.1-0.9
			c-10.1,1.4-24.1,5.3-31.6,12.2C6,34,5.6,34.8,5.6,35.8z"/>
		<path id="XMLID_9_" class="st0" d="M5.6,12.9v18.4c0,0.3,0.4,0.5,0.7,0.3c1.4-1.3,3.1-2.7,5.1-4l2-4.5l-0.9-0.3l4-2.3l-2.1,5.3
			c1-0.6,2-1.1,3.1-1.6l2.2-4.9l-1.3-0.4l5.4-3.1L21,22.5c0.8-0.3,1.7-0.7,2.5-1l4.2-9.5l-2-0.6l8.6-4.9l-5.4,13.3
			c2.9-0.8,6.1-1.5,9.6-2c0.5-0.1,0.8-0.5,0.8-0.9V5.4c0-0.7-0.6-1.2-1.2-1.2H14.4C9.5,4.2,5.6,8.1,5.6,12.9z"/>
	</g>
	<g id="XMLID_58_">
		<path id="XMLID_59_" class="st0" d="M53.9,30V11.8h7.2c1.4,0,2.5,0.2,3.5,0.7s1.7,1.2,2.2,2.1c0.5,0.9,0.8,1.9,0.8,3.1
			c0,1.2-0.3,2.2-0.8,3.1c-0.5,0.9-1.3,1.5-2.3,2c-1,0.5-2.2,0.7-3.6,0.7h-4.8v-3.1h4.2c0.7,0,1.3-0.1,1.8-0.3s0.8-0.5,1.1-0.9
			s0.4-0.9,0.4-1.5c0-0.6-0.1-1.1-0.4-1.5c-0.2-0.4-0.6-0.7-1.1-0.9c-0.5-0.2-1.1-0.3-1.8-0.3h-2.6v15H53.9z M63.7,21.7l4.5,8.3H64
			l-4.4-8.3H63.7z"/>
		<path id="XMLID_62_" class="st0" d="M76.2,30.2c-1.4,0-2.6-0.3-3.6-0.9s-1.8-1.4-2.3-2.4c-0.5-1.1-0.8-2.3-0.8-3.7
			c0-1.4,0.3-2.6,0.8-3.7s1.3-1.9,2.3-2.5c1-0.6,2.2-0.9,3.5-0.9c0.9,0,1.7,0.1,2.5,0.4c0.8,0.3,1.5,0.7,2,1.3
			c0.6,0.6,1,1.3,1.4,2.2c0.3,0.9,0.5,1.9,0.5,3v1H71v-2.3h8c0-0.5-0.1-1-0.4-1.4c-0.2-0.4-0.6-0.8-1-1c-0.4-0.2-0.9-0.4-1.5-0.4
			c-0.6,0-1.1,0.1-1.5,0.4s-0.8,0.6-1,1.1s-0.4,0.9-0.4,1.5v2.2c0,0.7,0.1,1.3,0.4,1.7s0.6,0.9,1.1,1.1c0.5,0.3,1,0.4,1.6,0.4
			c0.4,0,0.8-0.1,1.2-0.2c0.3-0.1,0.6-0.3,0.9-0.5c0.2-0.2,0.4-0.5,0.6-0.9l3.5,0.2c-0.2,0.8-0.5,1.6-1.1,2.2s-1.3,1.1-2.1,1.5
			C78.3,30,77.4,30.2,76.2,30.2z"/>
		<path id="XMLID_64_" class="st0" d="M91.1,35.4c-1.2,0-2.3-0.2-3.1-0.5s-1.6-0.8-2.1-1.4c-0.5-0.6-0.8-1.2-1-1.9l3.5-0.5
			c0.1,0.3,0.3,0.5,0.5,0.8c0.2,0.2,0.5,0.4,0.9,0.6s0.8,0.2,1.4,0.2c0.8,0,1.5-0.2,2-0.6c0.5-0.4,0.8-1.1,0.8-2v-2.5h-0.2
			c-0.2,0.4-0.4,0.7-0.7,1.1c-0.3,0.3-0.8,0.6-1.3,0.8c-0.5,0.2-1.1,0.3-1.9,0.3c-1,0-2-0.2-2.8-0.7c-0.8-0.5-1.5-1.2-2-2.2
			c-0.5-1-0.7-2.2-0.7-3.7c0-1.5,0.3-2.8,0.8-3.9s1.2-1.8,2-2.3c0.8-0.5,1.8-0.8,2.8-0.8c0.8,0,1.4,0.1,1.9,0.4
			c0.5,0.3,0.9,0.6,1.2,1c0.3,0.4,0.6,0.8,0.7,1.1H94v-2.3h3.8v13.8c0,1.2-0.3,2.1-0.9,2.9c-0.6,0.8-1.4,1.4-2.4,1.8
			C93.6,35.2,92.4,35.4,91.1,35.4z M91.2,26.9c0.6,0,1.1-0.2,1.5-0.5c0.4-0.3,0.7-0.7,1-1.3c0.2-0.6,0.3-1.3,0.3-2.1
			c0-0.8-0.1-1.5-0.3-2.1s-0.6-1-1-1.4c-0.4-0.3-0.9-0.5-1.6-0.5c-0.6,0-1.1,0.2-1.6,0.5s-0.7,0.8-1,1.4c-0.2,0.6-0.3,1.3-0.3,2.1
			c0,0.8,0.1,1.5,0.3,2c0.2,0.6,0.5,1,1,1.3C90,26.8,90.6,26.9,91.2,26.9z"/>
		<path id="XMLID_67_" class="st0" d="M104.6,22.1V30h-3.8V16.3h3.6v2.4h0.2c0.3-0.8,0.8-1.4,1.5-1.9c0.7-0.5,1.6-0.7,2.6-0.7
			c0.9,0,1.8,0.2,2.5,0.6c0.7,0.4,1.3,1,1.6,1.8s0.6,1.7,0.6,2.7V30h-3.8v-8c0-0.8-0.2-1.5-0.6-2c-0.4-0.5-1-0.7-1.8-0.7
			c-0.5,0-1,0.1-1.3,0.3c-0.4,0.2-0.7,0.5-0.9,1C104.7,21,104.6,21.5,104.6,22.1z"/>
		<path id="XMLID_69_" class="st0" d="M127.7,20.2l-3.5,0.2c-0.1-0.3-0.2-0.6-0.4-0.8s-0.5-0.4-0.8-0.6c-0.3-0.1-0.7-0.2-1.1-0.2
			c-0.6,0-1.1,0.1-1.5,0.4s-0.6,0.6-0.6,1c0,0.3,0.1,0.6,0.4,0.8c0.3,0.2,0.7,0.4,1.3,0.5L124,22c1.3,0.3,2.3,0.7,3,1.3
			c0.7,0.6,1,1.4,1,2.4c0,0.9-0.3,1.7-0.8,2.4c-0.5,0.7-1.2,1.2-2.1,1.6c-0.9,0.4-2,0.6-3.1,0.6c-1.8,0-3.2-0.4-4.3-1.1
			c-1.1-0.8-1.7-1.8-1.9-3.1l3.7-0.2c0.1,0.6,0.4,1,0.8,1.3c0.4,0.3,1,0.4,1.7,0.4c0.7,0,1.2-0.1,1.6-0.4c0.4-0.3,0.6-0.6,0.6-1
			c0-0.3-0.2-0.6-0.4-0.8c-0.3-0.2-0.7-0.4-1.3-0.5l-2.4-0.5c-1.3-0.3-2.3-0.7-3-1.4c-0.6-0.7-1-1.5-1-2.5c0-0.9,0.2-1.6,0.7-2.3
			c0.5-0.6,1.1-1.1,2-1.5c0.9-0.3,1.9-0.5,3-0.5c1.7,0,3.1,0.4,4.1,1.1C126.9,18,127.5,19,127.7,20.2z"/>
		<path id="XMLID_71_" class="st0" d="M130.4,30V11.8h3.8V30H130.4z M133.8,26l0-4.5h0.6l4.4-5.2h4.3l-5.9,6.9h-0.9L133.8,26z
			 M138.9,30l-4-5.9l2.5-2.7l5.9,8.6H138.9z"/>
		<path id="XMLID_75_" class="st0" d="M148.8,30.2c-0.9,0-1.6-0.2-2.3-0.5s-1.2-0.8-1.6-1.4s-0.6-1.4-0.6-2.3c0-0.8,0.1-1.4,0.4-1.9
			c0.3-0.5,0.7-0.9,1.1-1.2c0.5-0.3,1-0.6,1.6-0.7c0.6-0.2,1.3-0.3,1.9-0.3c0.8-0.1,1.4-0.2,1.9-0.2c0.5-0.1,0.8-0.2,1.1-0.3
			c0.2-0.1,0.3-0.4,0.3-0.7v-0.1c0-0.6-0.2-1-0.5-1.3c-0.4-0.3-0.9-0.5-1.5-0.5c-0.7,0-1.2,0.1-1.6,0.4c-0.4,0.3-0.7,0.7-0.8,1.1
			l-3.5-0.3c0.2-0.8,0.5-1.5,1-2.2c0.5-0.6,1.2-1.1,2-1.4c0.8-0.3,1.8-0.5,2.9-0.5c0.8,0,1.5,0.1,2.2,0.3c0.7,0.2,1.3,0.5,1.9,0.8
			c0.5,0.4,1,0.9,1.3,1.4c0.3,0.6,0.5,1.3,0.5,2.1V30h-3.6v-1.9h-0.1c-0.2,0.4-0.5,0.8-0.9,1.1c-0.4,0.3-0.8,0.6-1.3,0.8
			C150.1,30.1,149.5,30.2,148.8,30.2z M149.9,27.6c0.6,0,1-0.1,1.5-0.3s0.8-0.5,1-0.9c0.2-0.4,0.4-0.8,0.4-1.3v-1.4
			c-0.1,0.1-0.3,0.1-0.5,0.2s-0.4,0.1-0.7,0.2s-0.5,0.1-0.8,0.1s-0.5,0.1-0.7,0.1c-0.4,0.1-0.8,0.2-1.2,0.3
			c-0.3,0.1-0.6,0.3-0.8,0.6c-0.2,0.2-0.3,0.5-0.3,0.9c0,0.5,0.2,0.9,0.6,1.2C148.8,27.5,149.3,27.6,149.9,27.6z"/>
		<path id="XMLID_78_" class="st0" d="M159.4,35.1V16.3h3.7v2.3h0.2c0.2-0.4,0.4-0.7,0.7-1.1c0.3-0.4,0.7-0.7,1.2-1
			c0.5-0.3,1.2-0.4,1.9-0.4c1,0,1.9,0.3,2.8,0.8c0.8,0.5,1.5,1.3,2,2.3s0.8,2.3,0.8,3.9c0,1.5-0.2,2.8-0.7,3.8c-0.5,1-1.2,1.8-2,2.4
			c-0.8,0.5-1.8,0.8-2.8,0.8c-0.7,0-1.4-0.1-1.9-0.4c-0.5-0.2-0.9-0.5-1.3-0.9c-0.3-0.4-0.6-0.7-0.7-1.1h-0.1v7.3H159.4z
			 M163.1,23.1c0,0.8,0.1,1.5,0.3,2.1c0.2,0.6,0.6,1.1,1,1.4c0.4,0.3,0.9,0.5,1.6,0.5c0.6,0,1.1-0.2,1.6-0.5c0.4-0.3,0.8-0.8,1-1.4
			c0.2-0.6,0.3-1.3,0.3-2.1c0-0.8-0.1-1.5-0.3-2.1s-0.5-1.1-1-1.4s-1-0.5-1.6-0.5c-0.6,0-1.1,0.2-1.6,0.5c-0.4,0.3-0.7,0.8-1,1.4
			C163.2,21.6,163.1,22.3,163.1,23.1z"/>
		<path id="XMLID_81_" class="st0" d="M186.6,20.2l-3.5,0.2c-0.1-0.3-0.2-0.6-0.4-0.8s-0.5-0.4-0.8-0.6c-0.3-0.1-0.7-0.2-1.1-0.2
			c-0.6,0-1.1,0.1-1.5,0.4c-0.4,0.2-0.6,0.6-0.6,1c0,0.3,0.1,0.6,0.4,0.8c0.3,0.2,0.7,0.4,1.3,0.5L183,22c1.3,0.3,2.3,0.7,3,1.3
			c0.7,0.6,1,1.4,1,2.4c0,0.9-0.3,1.7-0.8,2.4c-0.5,0.7-1.2,1.2-2.1,1.6c-0.9,0.4-2,0.6-3.1,0.6c-1.8,0-3.2-0.4-4.3-1.1
			c-1.1-0.8-1.7-1.8-1.9-3.1l3.7-0.2c0.1,0.6,0.4,1,0.8,1.3c0.4,0.3,1,0.4,1.7,0.4c0.7,0,1.2-0.1,1.6-0.4c0.4-0.3,0.6-0.6,0.6-1
			c0-0.3-0.2-0.6-0.4-0.8c-0.3-0.2-0.7-0.4-1.3-0.5l-2.4-0.5c-1.3-0.3-2.3-0.7-3-1.4c-0.6-0.7-1-1.5-1-2.5c0-0.9,0.2-1.6,0.7-2.3
			c0.5-0.6,1.1-1.1,2-1.5s1.9-0.5,3-0.5c1.7,0,3.1,0.4,4.1,1.1C185.8,18,186.4,19,186.6,20.2z"/>
		<path id="XMLID_83_" class="st0" d="M196.6,16.3v2.8h-8.4v-2.8H196.6z M190.1,30V15.3c0-1,0.2-1.8,0.6-2.5
			c0.4-0.7,0.9-1.1,1.6-1.5c0.7-0.3,1.4-0.5,2.3-0.5c0.6,0,1.1,0,1.6,0.1s0.8,0.2,1.1,0.2l-0.7,2.8c-0.1,0-0.3-0.1-0.5-0.1
			c-0.2,0-0.4-0.1-0.7-0.1c-0.6,0-0.9,0.1-1.2,0.4s-0.3,0.6-0.3,1.1V30H190.1z"/>
		<path id="XMLID_86_" class="st0" d="M204.6,30.2c-1.4,0-2.6-0.3-3.6-0.9c-1-0.6-1.8-1.4-2.3-2.5c-0.5-1.1-0.8-2.3-0.8-3.7
			c0-1.4,0.3-2.6,0.8-3.7c0.5-1.1,1.3-1.9,2.3-2.5c1-0.6,2.2-0.9,3.6-0.9c1.4,0,2.6,0.3,3.6,0.9c1,0.6,1.8,1.4,2.3,2.5
			c0.5,1.1,0.8,2.3,0.8,3.7c0,1.4-0.3,2.6-0.8,3.7c-0.5,1.1-1.3,1.9-2.3,2.5C207.2,29.9,206,30.2,204.6,30.2z M200.6,30.8l-1.7-1.2
			l9.8-14.1l1.7,1.2L200.6,30.8z M204.6,27.3c0.6,0,1.2-0.2,1.6-0.5c0.4-0.4,0.7-0.8,1-1.5c0.2-0.6,0.3-1.3,0.3-2.1
			c0-0.8-0.1-1.5-0.3-2.1s-0.5-1.1-1-1.5c-0.4-0.4-0.9-0.5-1.6-0.5c-0.6,0-1.2,0.2-1.6,0.5c-0.4,0.4-0.8,0.9-1,1.5s-0.3,1.3-0.3,2.1
			c0,0.8,0.1,1.5,0.3,2.1c0.2,0.6,0.5,1.1,1,1.5C203.5,27.1,204,27.3,204.6,27.3z"/>
		<path id="XMLID_90_" class="st0" d="M213.8,30V16.3h3.7v2.4h0.1c0.2-0.8,0.7-1.5,1.3-1.9s1.3-0.7,2-0.7c0.2,0,0.4,0,0.6,0
			c0.2,0,0.4,0.1,0.6,0.1v3.4c-0.2-0.1-0.4-0.1-0.7-0.1c-0.3,0-0.6-0.1-0.9-0.1c-0.6,0-1.1,0.1-1.5,0.4c-0.4,0.2-0.8,0.6-1,1
			c-0.3,0.4-0.4,0.9-0.4,1.5V30H213.8z"/>
		<path id="XMLID_92_" class="st0" d="M229.6,30.2c-1.4,0-2.6-0.3-3.6-0.9c-1-0.6-1.8-1.4-2.3-2.4c-0.5-1.1-0.8-2.3-0.8-3.7
			c0-1.4,0.3-2.6,0.8-3.7c0.5-1.1,1.3-1.9,2.3-2.5s2.2-0.9,3.5-0.9c0.9,0,1.7,0.1,2.5,0.4s1.5,0.7,2,1.3c0.6,0.6,1,1.3,1.4,2.2
			c0.3,0.9,0.5,1.9,0.5,3v1h-11.5v-2.3h8c0-0.5-0.1-1-0.4-1.4c-0.2-0.4-0.6-0.8-1-1c-0.4-0.2-0.9-0.4-1.5-0.4
			c-0.6,0-1.1,0.1-1.5,0.4c-0.4,0.3-0.8,0.6-1,1.1s-0.4,0.9-0.4,1.5v2.2c0,0.7,0.1,1.3,0.4,1.7c0.3,0.5,0.6,0.9,1.1,1.1
			c0.5,0.3,1,0.4,1.6,0.4c0.4,0,0.8-0.1,1.2-0.2c0.3-0.1,0.6-0.3,0.9-0.5c0.2-0.2,0.4-0.5,0.6-0.9l3.5,0.2c-0.2,0.8-0.5,1.6-1.1,2.2
			c-0.5,0.6-1.3,1.1-2.1,1.5S230.7,30.2,229.6,30.2z"/>
		<path id="XMLID_94_" class="st0" d="M238.3,30V16.3h3.7v2.4h0.1c0.2-0.8,0.7-1.5,1.3-1.9s1.3-0.7,2-0.7c0.2,0,0.4,0,0.6,0
			c0.2,0,0.4,0.1,0.6,0.1v3.4c-0.2-0.1-0.4-0.1-0.7-0.1c-0.3,0-0.6-0.1-0.9-0.1c-0.6,0-1.1,0.1-1.5,0.4c-0.4,0.2-0.8,0.6-1,1
			c-0.3,0.4-0.4,0.9-0.4,1.5V30H238.3z"/>
		<path id="XMLID_96_" class="st0" d="M252.3,11.8V30h-3.8V11.8H252.3z"/>
		<path id="XMLID_98_" class="st0" d="M257.2,14.6c-0.6,0-1-0.2-1.4-0.6c-0.4-0.4-0.6-0.8-0.6-1.4c0-0.5,0.2-1,0.6-1.3
			s0.9-0.6,1.4-0.6s1,0.2,1.4,0.6s0.6,0.8,0.6,1.3c0,0.5-0.2,1-0.6,1.4C258.3,14.4,257.8,14.6,257.2,14.6z M255.3,30V16.3h3.8V30
			H255.3z"/>
		<path id="XMLID_101_" class="st0" d="M273.5,20.2l-3.5,0.2c-0.1-0.3-0.2-0.6-0.4-0.8s-0.5-0.4-0.8-0.6c-0.3-0.1-0.7-0.2-1.1-0.2
			c-0.6,0-1.1,0.1-1.5,0.4c-0.4,0.2-0.6,0.6-0.6,1c0,0.3,0.1,0.6,0.4,0.8c0.3,0.2,0.7,0.4,1.3,0.5l2.5,0.5c1.3,0.3,2.3,0.7,3,1.3
			c0.7,0.6,1,1.4,1,2.4c0,0.9-0.3,1.7-0.8,2.4c-0.5,0.7-1.2,1.2-2.1,1.6c-0.9,0.4-2,0.6-3.1,0.6c-1.8,0-3.2-0.4-4.3-1.1
			c-1.1-0.8-1.7-1.8-1.9-3.1l3.7-0.2c0.1,0.6,0.4,1,0.8,1.3c0.4,0.3,1,0.4,1.7,0.4c0.7,0,1.2-0.1,1.6-0.4c0.4-0.3,0.6-0.6,0.6-1
			c0-0.3-0.2-0.6-0.4-0.8c-0.3-0.2-0.7-0.4-1.3-0.5l-2.4-0.5c-1.3-0.3-2.3-0.7-3-1.4c-0.6-0.7-1-1.5-1-2.5c0-0.9,0.2-1.6,0.7-2.3
			s1.1-1.1,2-1.5c0.9-0.3,1.9-0.5,3-0.5c1.7,0,3.1,0.4,4.1,1.1C272.7,18,273.3,19,273.5,20.2z"/>
		<path id="XMLID_103_" class="st0" d="M283.4,16.3v2.8h-8.2v-2.8H283.4z M277.1,13.1h3.8v12.7c0,0.3,0.1,0.6,0.2,0.8
			s0.3,0.3,0.4,0.4c0.2,0.1,0.4,0.1,0.7,0.1c0.2,0,0.4,0,0.5,0c0.2,0,0.3-0.1,0.4-0.1l0.6,2.8c-0.2,0.1-0.5,0.1-0.8,0.2
			c-0.3,0.1-0.8,0.1-1.3,0.1c-0.9,0-1.7-0.1-2.4-0.4c-0.7-0.3-1.2-0.7-1.6-1.3c-0.4-0.6-0.6-1.3-0.6-2.2V13.1z"/>
		<path id="XMLID_106_" class="st0" d="M292,30.2c-1.4,0-2.6-0.3-3.6-0.9c-1-0.6-1.8-1.4-2.3-2.4c-0.5-1.1-0.8-2.3-0.8-3.7
			c0-1.4,0.3-2.6,0.8-3.7c0.5-1.1,1.3-1.9,2.3-2.5s2.2-0.9,3.5-0.9c0.9,0,1.7,0.1,2.5,0.4s1.5,0.7,2,1.3c0.6,0.6,1,1.3,1.4,2.2
			c0.3,0.9,0.5,1.9,0.5,3v1h-11.5v-2.3h8c0-0.5-0.1-1-0.4-1.4c-0.2-0.4-0.6-0.8-1-1c-0.4-0.2-0.9-0.4-1.5-0.4
			c-0.6,0-1.1,0.1-1.5,0.4c-0.4,0.3-0.8,0.6-1,1.1s-0.4,0.9-0.4,1.5v2.2c0,0.7,0.1,1.3,0.4,1.7c0.3,0.5,0.6,0.9,1.1,1.1
			c0.5,0.3,1,0.4,1.6,0.4c0.4,0,0.8-0.1,1.2-0.2c0.3-0.1,0.6-0.3,0.9-0.5c0.2-0.2,0.4-0.5,0.6-0.9l3.5,0.2c-0.2,0.8-0.5,1.6-1.1,2.2
			c-0.5,0.6-1.3,1.1-2.1,1.5S293.1,30.2,292,30.2z"/>
		<path id="XMLID_108_" class="st0" d="M304.5,22.1V30h-3.8V16.3h3.6v2.4h0.2c0.3-0.8,0.8-1.4,1.5-1.9c0.7-0.5,1.6-0.7,2.6-0.7
			c0.9,0,1.8,0.2,2.5,0.6c0.7,0.4,1.3,1,1.6,1.8s0.6,1.7,0.6,2.7V30h-3.8v-8c0-0.8-0.2-1.5-0.6-2c-0.4-0.5-1-0.7-1.8-0.7
			c-0.5,0-1,0.1-1.3,0.3c-0.4,0.2-0.7,0.5-0.9,1C304.6,21,304.5,21.5,304.5,22.1z"/>
		<path id="XMLID_110_" class="st0" d="M318.4,30.2c-0.6,0-1.1-0.2-1.5-0.6c-0.4-0.4-0.6-0.9-0.6-1.5c0-0.6,0.2-1.1,0.6-1.5
			c0.4-0.4,0.9-0.6,1.5-0.6c0.6,0,1.1,0.2,1.5,0.6c0.4,0.4,0.6,0.9,0.6,1.5c0,0.4-0.1,0.7-0.3,1.1s-0.5,0.6-0.8,0.8
			S318.8,30.2,318.4,30.2z"/>
		<path id="XMLID_112_" class="st0" d="M327.4,22.1V30h-3.8V16.3h3.6v2.4h0.2c0.3-0.8,0.8-1.4,1.5-1.9c0.7-0.5,1.6-0.7,2.6-0.7
			c0.9,0,1.8,0.2,2.5,0.6c0.7,0.4,1.3,1,1.6,1.8s0.6,1.7,0.6,2.7V30h-3.8v-8c0-0.8-0.2-1.5-0.6-2c-0.4-0.5-1-0.7-1.8-0.7
			c-0.5,0-1,0.1-1.3,0.3c-0.4,0.2-0.7,0.5-0.9,1C327.6,21,327.5,21.5,327.4,22.1z"/>
		<path id="XMLID_114_" class="st0" d="M345.4,30.2c-1.4,0-2.6-0.3-3.6-0.9c-1-0.6-1.8-1.4-2.3-2.5c-0.5-1.1-0.8-2.3-0.8-3.7
			c0-1.4,0.3-2.6,0.8-3.7c0.5-1.1,1.3-1.9,2.3-2.5c1-0.6,2.2-0.9,3.6-0.9c1.4,0,2.6,0.3,3.6,0.9c1,0.6,1.8,1.4,2.3,2.5
			c0.5,1.1,0.8,2.3,0.8,3.7c0,1.4-0.3,2.6-0.8,3.7c-0.5,1.1-1.3,1.9-2.3,2.5C347.9,29.9,346.7,30.2,345.4,30.2z M345.4,27.3
			c0.6,0,1.2-0.2,1.6-0.5c0.4-0.4,0.7-0.8,1-1.5c0.2-0.6,0.3-1.3,0.3-2.1s-0.1-1.5-0.3-2.1c-0.2-0.6-0.5-1.1-1-1.5
			c-0.4-0.4-0.9-0.5-1.6-0.5c-0.6,0-1.2,0.2-1.6,0.5c-0.4,0.4-0.8,0.9-1,1.5c-0.2,0.6-0.3,1.3-0.3,2.1s0.1,1.5,0.3,2.1
			c0.2,0.6,0.5,1.1,1,1.5C344.2,27.1,344.8,27.3,345.4,27.3z"/>
	</g>
</g>
</svg>
