<?xml version="1.0" encoding="utf-8"?>
<!-- Generator: Adobe Illustrator 19.0.0, SVG Export Plug-In . SVG Version: 6.00 Build 0)  -->
<svg version="1.1" id="Layer_1" xmlns="http://www.w3.org/2000/svg" xmlns:xlink="http://www.w3.org/1999/xlink" x="0px" y="0px"
	 viewBox="0 0 208.1 60.3" style="enable-background:new 0 0 208.1 60.3;" xml:space="preserve">
<style type="text/css">
	.st0{fill:#32133A;}
</style>
<path id="XMLID_2_" class="st0" d="M18,8.5c1.6,3.8,3.2,5.5,0.9,10.7c-2.4,5.6-4.7,6.5-3.2,8c1.6,1.5,4.6,2.1,4.6,2.1
	s-0.1,1-0.7,1.9c-0.7,0.9-0.6,2.3,0.8,3.1c1,0.6,1.1,0.7,1.2,0.7c0,0-0.5,0.5-0.8,1.5c-0.3,1.1,0.4,2.2,1.6,2.5
	c1.2,0.3,1.7,0.5,2,0.8c0.3,0.4,0.1,0.5,0,2.3c-0.1,1.8-0.4,3.5,1.9,4.8c2.3,1.3,6.4,0.2,9.7-1.9c2.9-1.8,10-4.1,15.5-1.1
	c-3.9,5-9.6,8.4-16.3,9.3C21.6,55,9.3,45.4,7.6,31.9C6.4,22.5,10.7,13.6,18,8.5z"/>
<g id="XMLID_5_">
	<path id="XMLID_6_" class="st0" d="M41.3,24.4c-0.1-0.6-0.3-1-0.8-1.3c-0.5-0.3-1.1-0.5-1.8-0.5c-0.5,0-1,0.1-1.3,0.3
		s-0.7,0.4-0.9,0.7c-0.2,0.3-0.3,0.6-0.3,1c0,0.3,0.1,0.6,0.2,0.8c0.1,0.2,0.3,0.4,0.6,0.6s0.5,0.3,0.7,0.4c0.3,0.1,0.5,0.2,0.7,0.2
		l1.2,0.3c0.3,0.1,0.6,0.2,1,0.3c0.4,0.1,0.7,0.3,1.1,0.6c0.3,0.2,0.6,0.5,0.8,0.9c0.2,0.4,0.3,0.8,0.3,1.4c0,0.6-0.2,1.2-0.5,1.7
		c-0.3,0.5-0.8,0.9-1.4,1.2s-1.4,0.4-2.3,0.4c-0.8,0-1.6-0.1-2.2-0.4c-0.6-0.3-1.1-0.6-1.4-1.1c-0.3-0.5-0.5-1-0.6-1.7h1.5
		c0,0.4,0.2,0.8,0.4,1.1c0.3,0.3,0.6,0.5,1,0.6c0.4,0.1,0.8,0.2,1.3,0.2c0.5,0,1-0.1,1.4-0.3c0.4-0.2,0.8-0.4,1-0.7
		c0.3-0.3,0.4-0.7,0.4-1.1c0-0.4-0.1-0.7-0.3-0.9c-0.2-0.2-0.5-0.4-0.9-0.6c-0.4-0.2-0.7-0.3-1.1-0.4l-1.4-0.4
		c-0.9-0.3-1.6-0.6-2.2-1.1c-0.5-0.5-0.8-1.1-0.8-1.9c0-0.7,0.2-1.2,0.5-1.7c0.4-0.5,0.8-0.9,1.4-1.1c0.6-0.3,1.3-0.4,2-0.4
		c0.8,0,1.4,0.1,2,0.4c0.6,0.3,1,0.6,1.4,1.1c0.3,0.5,0.5,1,0.5,1.6H41.3z"/>
	<path id="XMLID_8_" class="st0" d="M45,33.1V21.5h1.3v11.6H45z M46.2,29.9l0-1.7h0.3l3.8-3.9H52l-4.1,4.1h-0.1L46.2,29.9z
		 M50.5,33.1l-3.4-4.3l1-0.9l4.2,5.2H50.5z"/>
	<path id="XMLID_12_" class="st0" d="M53.7,24.4H55v9.4c0,0.5-0.1,1-0.3,1.4c-0.2,0.4-0.5,0.7-0.8,0.9c-0.4,0.2-0.8,0.3-1.4,0.3
		c0,0-0.1,0-0.1,0s-0.1,0-0.1,0v-1.3c0,0,0.1,0,0.1,0c0,0,0.1,0,0.1,0c0.4,0,0.7-0.1,0.9-0.4c0.2-0.2,0.3-0.6,0.3-1V24.4z
		 M54.3,22.9c-0.3,0-0.5-0.1-0.7-0.3c-0.2-0.2-0.3-0.4-0.3-0.6s0.1-0.5,0.3-0.6s0.4-0.3,0.7-0.3c0.3,0,0.5,0.1,0.7,0.3
		s0.3,0.4,0.3,0.6s-0.1,0.5-0.3,0.6C54.8,22.9,54.6,22.9,54.3,22.9z"/>
	<path id="XMLID_15_" class="st0" d="M61,33.3c-0.8,0-1.5-0.2-2.1-0.6s-1.1-0.9-1.4-1.6c-0.3-0.7-0.5-1.5-0.5-2.4
		c0-0.9,0.2-1.7,0.5-2.4c0.3-0.7,0.8-1.2,1.4-1.6s1.3-0.6,2.1-0.6c0.8,0,1.5,0.2,2.1,0.6s1.1,0.9,1.4,1.6c0.3,0.7,0.5,1.5,0.5,2.4
		c0,0.9-0.2,1.7-0.5,2.4c-0.3,0.7-0.8,1.2-1.4,1.6S61.8,33.3,61,33.3z M58.4,33.6L57.5,33l6.1-9l0.9,0.6L58.4,33.6z M61,32.1
		c0.6,0,1.1-0.2,1.5-0.5s0.7-0.7,0.9-1.2s0.3-1,0.3-1.6c0-0.6-0.1-1.1-0.3-1.6s-0.5-0.9-0.9-1.2s-0.9-0.5-1.5-0.5
		c-0.6,0-1.1,0.2-1.5,0.5s-0.7,0.7-0.9,1.2s-0.3,1-0.3,1.6c0,0.6,0.1,1.1,0.3,1.6s0.5,0.9,0.9,1.2S60.4,32.1,61,32.1z"/>
	<path id="XMLID_19_" class="st0" d="M68.4,27.9v5.2H67v-8.7h1.3v1.4h0.1c0.2-0.4,0.5-0.8,0.9-1.1c0.4-0.3,1-0.4,1.6-0.4
		c0.6,0,1.1,0.1,1.6,0.4c0.4,0.2,0.8,0.6,1,1.1s0.4,1.1,0.4,1.8v5.5h-1.3v-5.5c0-0.7-0.2-1.2-0.5-1.6s-0.8-0.6-1.5-0.6
		c-0.4,0-0.8,0.1-1.1,0.3c-0.3,0.2-0.6,0.5-0.8,0.8S68.4,27.4,68.4,27.9z"/>
	<path id="XMLID_21_" class="st0" d="M77.7,27.9v5.2h-1.3v-8.7h1.3v1.4h0.1c0.2-0.4,0.5-0.8,0.9-1.1c0.4-0.3,1-0.4,1.6-0.4
		c0.6,0,1.1,0.1,1.6,0.4c0.4,0.2,0.8,0.6,1,1.1s0.4,1.1,0.4,1.8v5.5H82v-5.5c0-0.7-0.2-1.2-0.5-1.6s-0.8-0.6-1.5-0.6
		c-0.4,0-0.8,0.1-1.1,0.3c-0.3,0.2-0.6,0.5-0.8,0.8S77.7,27.4,77.7,27.9z"/>
	<path id="XMLID_23_" class="st0" d="M87.1,27.9v5.2h-1.3V21.5h1.3v4.3h0.1c0.2-0.5,0.5-0.8,0.9-1.1s1-0.4,1.6-0.4
		c0.6,0,1.1,0.1,1.6,0.4s0.8,0.6,1,1.1s0.4,1.1,0.4,1.9v5.5h-1.3v-5.5c0-0.7-0.2-1.2-0.5-1.6c-0.4-0.4-0.9-0.6-1.5-0.6
		c-0.4,0-0.8,0.1-1.2,0.3s-0.6,0.5-0.8,0.8C87.2,26.9,87.1,27.4,87.1,27.9z"/>
	<path id="XMLID_25_" class="st0" d="M98.9,33.3c-0.8,0-1.6-0.2-2.2-0.6c-0.6-0.4-1.1-0.9-1.4-1.6c-0.3-0.7-0.5-1.5-0.5-2.4
		s0.2-1.7,0.5-2.4c0.3-0.7,0.8-1.2,1.4-1.6s1.3-0.6,2.1-0.6c0.5,0,0.9,0.1,1.3,0.2c0.4,0.2,0.8,0.4,1.2,0.7c0.4,0.3,0.7,0.8,0.9,1.3
		c0.2,0.6,0.3,1.2,0.3,2.1v0.6h-6.7v-1.2h5.4c0-0.5-0.1-0.9-0.3-1.3c-0.2-0.4-0.5-0.7-0.8-0.9c-0.4-0.2-0.8-0.3-1.3-0.3
		c-0.5,0-1,0.1-1.4,0.4c-0.4,0.3-0.7,0.6-0.9,1s-0.3,0.9-0.3,1.4V29c0,0.7,0.1,1.2,0.3,1.7c0.2,0.5,0.5,0.8,1,1
		c0.4,0.2,0.9,0.4,1.4,0.4c0.4,0,0.7,0,1-0.2c0.3-0.1,0.5-0.3,0.7-0.5c0.2-0.2,0.4-0.5,0.5-0.8l1.3,0.4c-0.1,0.4-0.4,0.8-0.7,1.2
		c-0.3,0.3-0.7,0.6-1.2,0.8C100,33.2,99.5,33.3,98.9,33.3z"/>
	<path id="XMLID_27_" class="st0" d="M108.3,24.4v1.1h-4.5v-1.1H108.3z M105.1,22.3h1.3v8.3c0,0.4,0.1,0.7,0.2,0.8
		c0.1,0.2,0.3,0.3,0.4,0.4c0.2,0.1,0.4,0.1,0.6,0.1c0.1,0,0.3,0,0.4,0c0.1,0,0.2,0,0.2,0l0.3,1.2c-0.1,0-0.2,0.1-0.4,0.1
		c-0.2,0-0.4,0.1-0.6,0.1c-0.4,0-0.7-0.1-1.1-0.2c-0.4-0.2-0.7-0.4-0.9-0.7c-0.2-0.3-0.4-0.8-0.4-1.3V22.3z"/>
	<path id="XMLID_30_" class="st0" d="M116.4,26.4l-1.2,0.3c-0.1-0.2-0.2-0.4-0.3-0.6c-0.1-0.2-0.3-0.3-0.6-0.5s-0.6-0.2-1-0.2
		c-0.5,0-1,0.1-1.3,0.4c-0.4,0.2-0.5,0.6-0.5,0.9c0,0.3,0.1,0.6,0.4,0.8c0.2,0.2,0.6,0.4,1.1,0.5l1.3,0.3c0.8,0.2,1.4,0.5,1.7,0.9
		c0.4,0.4,0.6,0.9,0.6,1.5c0,0.5-0.1,0.9-0.4,1.3c-0.3,0.4-0.7,0.7-1.2,0.9c-0.5,0.2-1.1,0.3-1.8,0.3c-0.9,0-1.6-0.2-2.2-0.6
		c-0.6-0.4-1-1-1.1-1.7l1.3-0.3c0.1,0.5,0.4,0.8,0.7,1.1c0.3,0.2,0.8,0.4,1.3,0.4c0.6,0,1.1-0.1,1.5-0.4c0.4-0.3,0.6-0.6,0.6-1
		c0-0.3-0.1-0.6-0.3-0.8c-0.2-0.2-0.5-0.4-1-0.5l-1.5-0.3c-0.8-0.2-1.4-0.5-1.8-0.9c-0.4-0.4-0.6-0.9-0.6-1.5c0-0.5,0.1-0.9,0.4-1.3
		s0.7-0.7,1.1-0.9c0.5-0.2,1-0.3,1.6-0.3c0.9,0,1.5,0.2,2,0.6C115.8,25.2,116.2,25.7,116.4,26.4z"/>
	<path id="XMLID_32_" class="st0" d="M118.5,33.1V21.5h1.3v11.6H118.5z M119.8,29.9l0-1.7h0.3l3.8-3.9h1.7l-4.1,4.1h-0.1L119.8,29.9
		z M124.1,33.1l-3.4-4.3l1-0.9l4.2,5.2H124.1z"/>
	<path id="XMLID_36_" class="st0" d="M128.6,21.5v11.6h-1.3V21.5H128.6z"/>
	<path id="XMLID_38_" class="st0" d="M131.7,22.9c-0.3,0-0.5-0.1-0.7-0.3c-0.2-0.2-0.3-0.4-0.3-0.6s0.1-0.5,0.3-0.6s0.4-0.3,0.7-0.3
		s0.5,0.1,0.7,0.3s0.3,0.4,0.3,0.6s-0.1,0.5-0.3,0.6C132.2,22.9,132,22.9,131.7,22.9z M131,33.1v-8.7h1.3v8.7H131z"/>
	<path id="XMLID_41_" class="st0" d="M136.2,27.9v5.2h-1.3v-8.7h1.3v1.4h0.1c0.2-0.4,0.5-0.8,0.9-1.1c0.4-0.3,1-0.4,1.6-0.4
		c0.6,0,1.1,0.1,1.6,0.4c0.4,0.2,0.8,0.6,1,1.1c0.2,0.5,0.4,1.1,0.4,1.8v5.5h-1.3v-5.5c0-0.7-0.2-1.2-0.5-1.6
		c-0.4-0.4-0.8-0.6-1.5-0.6c-0.4,0-0.8,0.1-1.1,0.3s-0.6,0.5-0.8,0.8C136.3,26.9,136.2,27.4,136.2,27.9z"/>
	<path id="XMLID_43_" class="st0" d="M144.9,22.9c-0.3,0-0.5-0.1-0.7-0.3c-0.2-0.2-0.3-0.4-0.3-0.6s0.1-0.5,0.3-0.6s0.4-0.3,0.7-0.3
		s0.5,0.1,0.7,0.3s0.3,0.4,0.3,0.6s-0.1,0.5-0.3,0.6C145.4,22.9,145.1,22.9,144.9,22.9z M144.2,33.1v-8.7h1.3v8.7H144.2z"/>
	<path id="XMLID_46_" class="st0" d="M148,33.1V21.5h1.3v11.6H148z M149.2,29.9l0-1.7h0.3l3.8-3.9h1.7l-4.1,4.1h-0.1L149.2,29.9z
		 M153.5,33.1l-3.4-4.3l1-0.9l4.2,5.2H153.5z"/>
	<path id="XMLID_50_" class="st0" d="M156.7,33.1V21.5h1.3v11.6H156.7z M158,29.9l0-1.7h0.3l3.8-3.9h1.7l-4.1,4.1h-0.1L158,29.9z
		 M162.2,33.1l-3.4-4.3l1-0.9l4.2,5.2H162.2z"/>
	<path id="XMLID_54_" class="st0" d="M168.7,33.3c-0.8,0-1.6-0.2-2.2-0.6c-0.6-0.4-1.1-0.9-1.4-1.6c-0.3-0.7-0.5-1.5-0.5-2.4
		s0.2-1.7,0.5-2.4c0.3-0.7,0.8-1.2,1.4-1.6s1.3-0.6,2.1-0.6c0.5,0,0.9,0.1,1.3,0.2c0.4,0.2,0.8,0.4,1.2,0.7c0.4,0.3,0.7,0.8,0.9,1.3
		c0.2,0.6,0.3,1.2,0.3,2.1v0.6h-6.7v-1.2h5.4c0-0.5-0.1-0.9-0.3-1.3c-0.2-0.4-0.5-0.7-0.8-0.9c-0.4-0.2-0.8-0.3-1.3-0.3
		c-0.5,0-1,0.1-1.4,0.4c-0.4,0.3-0.7,0.6-0.9,1s-0.3,0.9-0.3,1.4V29c0,0.7,0.1,1.2,0.3,1.7c0.2,0.5,0.5,0.8,1,1
		c0.4,0.2,0.9,0.4,1.4,0.4c0.4,0,0.7,0,1-0.2c0.3-0.1,0.5-0.3,0.7-0.5c0.2-0.2,0.4-0.5,0.5-0.8l1.3,0.4c-0.1,0.4-0.4,0.8-0.7,1.2
		c-0.3,0.3-0.7,0.6-1.2,0.8C169.8,33.2,169.3,33.3,168.7,33.3z"/>
	<path id="XMLID_56_" class="st0" d="M174.4,33.1v-8.7h1.3v1.3h0.1c0.2-0.4,0.4-0.8,0.9-1.1c0.4-0.3,0.9-0.4,1.4-0.4
		c0.1,0,0.2,0,0.4,0s0.3,0,0.3,0v1.4c0,0-0.1,0-0.3-0.1c-0.2,0-0.3,0-0.5,0c-0.4,0-0.8,0.1-1.1,0.3c-0.3,0.2-0.6,0.4-0.8,0.7
		c-0.2,0.3-0.3,0.7-0.3,1.1v5.5H174.4z"/>
	<path id="XMLID_58_" class="st0" d="M180.3,33.2c-0.3,0-0.5-0.1-0.7-0.3c-0.2-0.2-0.3-0.4-0.3-0.7c0-0.3,0.1-0.5,0.3-0.7
		c0.2-0.2,0.4-0.3,0.7-0.3s0.5,0.1,0.7,0.3c0.2,0.2,0.3,0.4,0.3,0.7c0,0.2,0,0.4-0.1,0.5s-0.2,0.3-0.4,0.4S180.5,33.2,180.3,33.2z"
		/>
	<path id="XMLID_60_" class="st0" d="M185.1,27.9v5.2h-1.3v-8.7h1.3v1.4h0.1c0.2-0.4,0.5-0.8,0.9-1.1c0.4-0.3,1-0.4,1.6-0.4
		c0.6,0,1.1,0.1,1.6,0.4c0.4,0.2,0.8,0.6,1,1.1c0.2,0.5,0.4,1.1,0.4,1.8v5.5h-1.3v-5.5c0-0.7-0.2-1.2-0.5-1.6
		c-0.4-0.4-0.8-0.6-1.5-0.6c-0.4,0-0.8,0.1-1.1,0.3s-0.6,0.5-0.8,0.8C185.2,26.9,185.1,27.4,185.1,27.9z"/>
	<path id="XMLID_62_" class="st0" d="M196.6,33.3c-0.8,0-1.5-0.2-2.1-0.6c-0.6-0.4-1.1-0.9-1.4-1.6c-0.3-0.7-0.5-1.5-0.5-2.4
		c0-0.9,0.2-1.7,0.5-2.4c0.3-0.7,0.8-1.2,1.4-1.6c0.6-0.4,1.3-0.6,2.1-0.6s1.5,0.2,2.1,0.6s1.1,0.9,1.4,1.6c0.3,0.7,0.5,1.5,0.5,2.4
		c0,0.9-0.2,1.7-0.5,2.4c-0.3,0.7-0.8,1.2-1.4,1.6S197.4,33.3,196.6,33.3z M196.6,32.1c0.6,0,1.1-0.2,1.5-0.5s0.7-0.7,0.9-1.2
		c0.2-0.5,0.3-1,0.3-1.6c0-0.6-0.1-1.1-0.3-1.6c-0.2-0.5-0.5-0.9-0.9-1.2s-0.9-0.5-1.5-0.5s-1.1,0.2-1.5,0.5
		c-0.4,0.3-0.7,0.7-0.9,1.2s-0.3,1-0.3,1.6c0,0.6,0.1,1.1,0.3,1.6s0.5,0.9,0.9,1.2C195.5,31.9,196,32.1,196.6,32.1z"/>
</g>
</svg>
